<svg width="242" height="248" viewBox="0 0 242 248" fill="none" xmlns="http://www.w3.org/2000/svg">
<g filter="url(#filter0_f_37_77)">
<path d="M198.078 45.7651C180.39 26.9445 155.572 17 126.302 17C104.373 17 84.9691 22.893 69.1124 34.1615C58.4463 39.5086 48.9686 46.9523 41.2462 56.0473C25.6103 74.3504 17 98.9498 17 125.312C17 188.224 56.5687 230.494 115.461 230.494C137.944 230.494 157.65 224.566 173.564 213.231C184.376 207.832 193.944 200.239 201.657 190.935C216.71 172.866 225 148.448 225 122.178C225.003 90.9289 215.692 64.5061 198.078 45.7651ZM127.023 208.104C75.8953 208.104 43.9737 171.858 43.9737 118.333C43.9737 90.8519 54.9353 63.7754 76.8905 47.5758C88.7167 41.9961 101.662 39.1946 114.737 39.3854C165.143 39.3854 198.028 73.2268 198.028 129.157C198.028 156.141 187.84 183.496 165.719 199.877C154.954 205.076 142.112 208.104 127.023 208.104Z" fill="black"/>
<path d="M127.023 71.5279C116.935 71.5279 108.647 74.7678 102.367 80.6223C85.8824 86.4074 76.8123 103.695 76.8123 127.707C76.8123 154.594 91.4518 175.714 114.495 175.714C124.827 175.714 132.942 172.523 138.955 166.761C155.778 161.073 163.74 143.488 163.74 119.052C163.749 86.8915 148.385 71.5279 127.023 71.5279ZM126.062 153.329C110.758 153.329 103.787 136.432 103.787 120.732C103.787 109.502 106.227 100.129 110.665 94.3384V94.3319C112.246 94.0487 113.849 93.9085 115.455 93.9132C129.599 93.9132 136.772 104.718 136.772 126.026C136.772 139.903 134.12 148.16 130.558 153.074C129.068 153.269 127.565 153.354 126.062 153.329Z" fill="black"/>
<path d="M209.59 122.278C209.59 164.76 184.386 208.205 127.019 208.205C75.8915 208.205 43.97 171.958 43.97 118.433C43.97 74.9901 71.3341 32.5063 126.299 32.5063C176.706 32.5063 209.59 66.3489 209.59 122.278ZM127.019 71.6282C102.296 71.6282 88.3735 91.0703 88.3735 120.832C88.3735 147.72 103.013 168.839 126.058 168.839C151.742 168.839 163.743 149.158 163.743 119.152C163.745 86.9918 148.382 71.6282 127.02 71.6282H127.019Z" fill="#FCD015"/>
<path d="M126.495 208.205C114.724 208.339 103.042 206.154 92.1159 201.772C82.1978 197.713 73.2932 191.524 66.0321 183.643C58.6442 175.509 52.9907 165.955 49.4164 155.564C45.4193 143.889 43.4014 131.628 43.4463 119.287H87.8627C87.855 119.774 87.8499 120.294 87.8499 120.828C87.8094 127.205 88.7015 133.553 90.4978 139.672C92.0885 145.161 94.6465 150.323 98.0512 154.913C101.198 159.157 105.255 162.642 109.925 165.113C114.748 167.602 120.105 168.881 125.533 168.837C131.297 168.947 137.01 167.739 142.235 165.303C146.926 163 150.964 159.556 153.979 155.287C157.25 150.557 159.605 145.255 160.921 139.656C162.516 132.986 163.288 126.145 163.22 119.287H209.035C209.056 120.298 209.067 121.304 209.067 122.278C209.068 127.597 208.669 132.908 207.871 138.167C207.077 143.409 205.86 148.579 204.232 153.625C201.058 163.678 195.987 173.028 189.293 181.172C182.326 189.565 173.539 196.261 163.598 200.753C151.906 205.862 139.254 208.404 126.495 208.205Z" fill="#FBB500"/>
<path d="M126.498 212.057C100.487 212.057 78.5139 203.042 62.9537 185.989C47.6723 169.238 39.5962 145.879 39.5962 118.434C39.5962 75.1942 66.5635 28.655 125.777 28.655C151.776 28.655 173.683 37.3437 189.131 53.7809C204.694 70.3465 212.919 94.0263 212.919 122.28C212.919 145.852 205.58 167.643 192.254 183.64C176.766 202.229 154.027 212.057 126.498 212.057ZM125.777 36.3587C71.8581 36.3587 47.3011 78.9042 47.3011 118.433C47.3011 170.626 78.3867 204.352 126.498 204.352C180.874 204.352 205.217 163.131 205.217 122.279C205.214 69.282 174.776 36.3587 125.777 36.3587ZM125.537 172.691C101.08 172.691 83.9998 151.365 83.9998 120.832C83.9998 88.1051 100.283 67.7757 126.498 67.7757C151.906 67.7757 167.077 86.9815 167.077 119.152C167.074 153.177 151.934 172.691 125.537 172.691ZM126.498 75.4806C104.711 75.4806 91.7047 92.4314 91.7047 120.832C91.7047 146.83 105.617 164.986 125.537 164.986C140.971 164.986 159.37 157.035 159.37 119.152C159.37 91.3977 147.388 75.4806 126.498 75.4806Z" fill="#FCD015"/>
</g>
<defs>
<filter id="filter0_f_37_77" x="0" y="0" width="242" height="247.494" filterUnits="userSpaceOnUse" color-interpolation-filters="sRGB">
<feFlood flood-opacity="0" result="BackgroundImageFix"/>
<feBlend mode="normal" in="SourceGraphic" in2="BackgroundImageFix" result="shape"/>
<feGaussianBlur stdDeviation="8.5" result="effect1_foregroundBlur_37_77"/>
</filter>
</defs>
</svg>
