<svg width="452" height="477" viewBox="0 0 452 477" fill="none" xmlns="http://www.w3.org/2000/svg">
<g filter="url(#filter0_f_37_94)">
<path d="M389.446 158.1C372.06 116.471 337.57 84.9863 289.699 67.0352C253.833 53.5857 218.485 51.3235 185.64 60.0281C164.917 62.2318 144.851 68.5932 126.643 78.7319C89.8448 99.077 60.6759 134.029 44.5078 177.144C5.92377 280.037 44.7144 373.435 141.033 409.554C177.804 423.343 213.668 425.734 246.648 416.956C267.641 414.757 287.946 408.206 306.266 397.72C341.967 377.4 370.502 342.548 386.613 299.584C405.782 248.478 406.761 199.554 389.446 158.1ZM173.673 380.027C90.0543 348.671 60.0768 269.812 92.9036 182.272C109.758 137.327 144.291 99.7667 190.134 86.7374C212.898 84.8648 235.788 88.2225 257.055 96.5535C339.494 127.467 372.522 202.983 338.22 294.457C321.67 338.589 288.232 377.08 242.007 390.304C221.212 392.206 198.351 389.281 173.673 380.027Z" fill="black"/>
<path d="M257.435 156.657C240.935 150.47 225.394 150.686 211.533 156.41C181.024 155.761 155.588 178.472 140.861 217.744C124.372 261.717 135.361 305.237 173.048 319.37C189.946 325.706 205.175 325.464 218.544 319.729C249.545 320.744 273.351 296.866 288.338 256.901C308.077 204.308 292.372 169.758 257.435 156.657ZM205.696 289.853C180.665 280.467 179.628 248.557 189.257 222.879C196.144 204.513 205.883 190.68 216.692 183.932L216.696 183.921C219.456 184.427 222.163 185.181 224.787 186.174C247.919 194.848 253.024 216.919 239.956 251.768C231.446 274.463 222.044 286.341 213.204 292.194C210.647 291.599 208.138 290.817 205.696 289.853Z" fill="black"/>
<path d="M361.35 290.297C335.295 359.777 267.429 415.372 173.606 380.189C89.987 348.832 60.0095 269.974 92.8364 182.434C119.48 111.383 190.289 58.6833 280.183 92.3931C362.624 123.308 395.651 198.825 361.35 290.297ZM257.368 156.819C216.934 141.656 182.24 164.915 163.987 213.59C147.497 257.564 158.487 301.083 196.178 315.217C238.182 330.968 269.882 306.141 288.284 257.067C308.01 204.47 292.308 169.921 257.37 156.819L257.368 156.819Z" fill="#FCD015"/>
<path d="M172.749 379.867C153.414 372.868 135.649 362.129 120.466 348.262C106.735 335.541 95.9668 319.957 88.9251 302.614C81.8308 284.78 78.4437 265.688 78.9706 246.502C79.5939 224.955 83.8136 203.665 91.4555 183.509L164.098 210.75C163.787 211.541 163.46 212.388 163.132 213.262C159.155 223.666 156.721 234.596 155.906 245.705C155.141 255.659 156.159 265.669 158.912 275.265C161.456 284.135 165.953 292.324 172.075 299.229C178.438 306.258 186.415 311.634 195.319 314.893C204.679 318.607 214.763 320.134 224.802 319.356C233.887 318.465 242.603 315.309 250.152 310.177C258.403 304.446 265.506 297.219 271.092 288.87C277.792 278.939 283.25 268.224 287.344 256.966L362.274 285.064C361.69 286.731 361.089 288.383 360.492 289.975C357.233 298.675 353.322 307.117 348.792 315.228C344.279 323.316 339.118 331.025 333.36 338.279C322.004 352.773 307.975 364.956 292.033 374.169C275.491 383.623 257.013 389.186 238.001 390.435C215.745 391.621 193.493 388.018 172.749 379.867Z" fill="#FBB500"/>
<path d="M170.39 386.17C127.849 370.217 97.4411 341.997 82.4516 304.563C67.7319 267.796 68.8496 224.639 85.6816 179.753C112.201 109.034 184.848 49.4587 281.692 85.7746C324.213 101.72 354.712 129.365 369.897 165.723C385.19 202.36 384.119 246.133 366.791 292.342C352.335 330.894 326.967 362.032 295.362 380.022C258.631 400.926 215.414 403.054 170.39 386.17ZM276.967 98.3739C188.783 65.3052 122.527 119.827 98.2838 184.477C66.2736 269.839 96.4299 344.062 175.115 373.568C264.047 406.917 329.14 354.429 354.195 287.616C386.694 200.938 357.104 128.425 276.967 98.3739ZM192.962 321.198C152.963 306.198 138.107 260.844 156.833 210.907C176.904 157.383 216.003 134.12 258.878 150.198C300.433 165.781 313.466 206.496 293.736 259.111C272.864 314.758 236.134 337.387 192.962 321.198ZM254.152 162.799C218.52 149.437 186.852 169.184 169.434 215.633C153.49 258.152 165.108 296.38 197.687 308.596C222.93 318.062 257.897 316.341 281.13 254.384C298.152 208.992 288.319 175.612 254.152 162.799Z" fill="#FCD015"/>
</g>
<defs>
<filter id="filter0_f_37_94" x="7.75403" y="32.8601" width="415.994" height="411.256" filterUnits="userSpaceOnUse" color-interpolation-filters="sRGB">
<feFlood flood-opacity="0" result="BackgroundImageFix"/>
<feBlend mode="normal" in="SourceGraphic" in2="BackgroundImageFix" result="shape"/>
<feGaussianBlur stdDeviation="11" result="effect1_foregroundBlur_37_94"/>
</filter>
</defs>
</svg>
