<svg width="344" height="397" viewBox="0 0 344 397" fill="none" xmlns="http://www.w3.org/2000/svg">
<path d="M298.654 53.451C269.481 18.4788 228.549 0 180.274 0C144.105 0 112.103 10.9503 85.9497 31.8893C68.3581 41.8252 52.7263 55.657 39.9896 72.5573C14.2011 106.568 0 152.278 0 201.264C0 318.167 65.2613 396.711 162.394 396.711C199.476 396.711 231.976 385.697 258.224 364.634C276.056 354.602 291.836 340.492 304.557 323.204C329.384 289.628 343.058 244.254 343.058 195.44C343.062 137.374 327.707 88.2753 298.654 53.451ZM181.462 355.108C97.1369 355.108 44.4882 287.755 44.4882 188.295C44.4882 137.231 62.5672 86.9175 98.7783 56.8155C118.283 46.4474 139.635 41.2417 161.199 41.5963C244.334 41.5963 298.572 104.48 298.572 208.409C298.572 258.55 281.77 309.381 245.285 339.819C227.53 349.481 206.348 355.108 181.462 355.108Z" fill="black"/>
<path d="M181.462 101.323C164.823 101.323 151.154 107.343 140.797 118.222C113.608 128.972 98.6489 161.095 98.6489 205.715C98.6489 255.675 122.794 294.92 160.799 294.92C177.84 294.92 191.224 288.991 201.142 278.284C228.888 267.715 242.019 235.039 242.019 189.632C242.034 129.872 216.695 101.323 181.462 101.323ZM179.878 253.324C154.636 253.324 143.139 221.927 143.139 192.753C143.139 171.885 147.163 154.469 154.483 143.709V143.697C157.09 143.171 159.734 142.91 162.383 142.919C185.711 142.919 197.542 162.997 197.542 202.591C197.542 228.376 193.168 243.72 187.293 252.852C184.835 253.214 182.356 253.372 179.878 253.324Z" fill="black"/>
<path d="M317.643 195.626C317.643 274.566 276.073 355.294 181.456 355.294C97.1311 355.294 44.4824 287.941 44.4824 188.482C44.4824 107.756 89.6145 28.8135 180.268 28.8135C263.405 28.8135 317.643 91.6995 317.643 195.626ZM181.456 101.509C140.681 101.509 117.718 137.636 117.718 192.939C117.718 242.901 141.863 282.145 179.872 282.145C222.232 282.145 242.026 245.574 242.026 189.818C242.029 130.058 216.691 101.509 181.459 101.509H181.456Z" fill="#FCD015"/>
<path d="M180.592 355.294C161.178 355.544 141.91 351.482 123.889 343.341C107.531 335.799 92.8448 324.298 80.8689 309.653C68.684 294.539 59.3595 276.786 53.4644 257.478C46.8719 235.783 43.5439 212.999 43.6179 190.068H116.875C116.862 190.972 116.853 191.939 116.853 192.932C116.787 204.781 118.258 216.577 121.221 227.947C123.844 238.147 128.063 247.738 133.679 256.269C138.869 264.154 145.56 270.631 153.261 275.222C161.218 279.847 170.053 282.222 179.006 282.142C188.512 282.346 197.934 280.1 206.552 275.575C214.289 271.295 220.948 264.895 225.921 256.963C231.316 248.173 235.2 238.321 237.371 227.918C240.001 215.523 241.275 202.812 241.162 190.068H316.725C316.761 191.946 316.778 193.817 316.778 195.626C316.781 205.509 316.122 215.378 314.806 225.15C313.497 234.892 311.489 244.498 308.804 253.875C303.569 272.554 295.206 289.93 284.165 305.062C272.674 320.658 258.182 333.1 241.787 341.447C222.503 350.942 201.635 355.664 180.592 355.294Z" fill="#FBB500"/>
<path d="M180.596 362.452C137.696 362.452 101.456 345.701 75.792 314.013C50.588 282.887 37.2681 239.482 37.2681 188.484C37.2681 108.135 81.7456 21.657 179.408 21.657C222.288 21.657 258.419 37.8021 283.898 68.3456C309.566 99.1276 323.132 143.129 323.132 195.63C323.132 239.432 311.028 279.923 289.049 309.648C263.504 344.191 226.001 362.452 180.596 362.452ZM179.408 35.9719C90.4781 35.9719 49.9759 115.029 49.9759 188.481C49.9759 285.466 101.246 348.135 180.596 348.135C270.28 348.135 310.428 271.538 310.428 195.628C310.424 97.1494 260.221 35.9719 179.408 35.9719ZM179.012 289.303C138.675 289.303 110.504 249.676 110.504 192.939C110.504 132.126 137.36 94.3504 180.596 94.3504C222.502 94.3504 247.524 130.039 247.524 189.818C247.52 253.043 222.549 289.303 179.012 289.303ZM180.596 108.668C144.662 108.668 123.211 140.166 123.211 192.939C123.211 241.248 146.158 274.986 179.012 274.986C204.468 274.986 234.812 260.211 234.812 189.818C234.812 138.245 215.051 108.668 180.596 108.668Z" fill="#FCD015"/>
</svg>
