<svg width="272" height="290" viewBox="0 0 272 290" fill="none" xmlns="http://www.w3.org/2000/svg">
<g filter="url(#filter0_f_37_68)">
<path d="M68.7049 75.7025C68.8928 75.6211 69.0918 75.5681 69.2953 75.5452C70.8085 75.8044 104.942 104.028 121.349 120.796L122.822 120.223C125.734 96.5014 131.433 51.6487 133.055 50.7356C133.092 50.7187 133.13 50.7039 133.169 50.6912C136.633 49.3432 175.783 45.1673 177.157 47.9791C178.644 51.0717 166.575 133.979 165.812 137.099C181.142 148.922 238.701 195.984 239.125 197.796C239.152 199.931 212.232 222.484 202.184 226.394C201.714 226.582 201.23 226.735 200.737 226.851C199.075 226.932 164.654 197.973 146.53 181.873L145.059 182.446C142.828 206.465 137.278 250.978 136.053 251.455C135.392 251.841 134.699 252.17 133.983 252.438C123.212 256.628 91.1276 259.458 89.9631 257.814C88.805 256.288 98.3954 182.25 102.057 161.908C99.7248 160.274 35.531 107.041 34.5354 103.757C33.4405 100.943 63.2225 77.8403 68.709 75.7054L68.7049 75.7025ZM62.7178 60.3084C56.7078 62.647 45.1749 71.5031 38.8339 76.575C35.579 79.1712 30.9275 83.0155 27.2439 86.526C23.5804 90.0198 15.0837 98.1097 18.8915 109.076C20.4731 113.855 23.4327 116.825 34.2328 126.375C39.9246 131.408 47.6325 138.031 57.1263 146.066C65.1986 152.892 76.4941 162.342 84.2016 168.69C82.2304 181.438 79.7452 199.684 77.8141 214.825C76.3695 226.144 75.1952 235.99 74.4168 243.303C72.9414 257.192 72.4335 261.95 76.6816 267.647C82.2437 275.191 91.0284 274.93 96.3052 274.773C100.113 274.66 105.026 274.293 110.138 273.741C117.71 272.926 131.653 271.072 139.97 267.836C141.308 267.325 142.608 266.72 143.86 266.027C150.863 262.328 152.349 255.189 152.866 252.722C153.191 251.162 153.554 249.103 153.976 246.428C154.698 241.853 155.591 235.441 156.559 227.886C157.14 223.376 157.719 218.643 158.28 213.913C161.98 217.053 165.686 220.178 169.215 223.123C175.122 228.054 180.191 232.192 183.871 235.096C190.662 240.456 194.759 243.691 201.535 243.359L202.958 243.289L204.347 242.978C205.65 242.681 206.928 242.286 208.171 241.796C215.853 238.807 226.868 230.647 234.756 224.329C238.973 220.951 242.962 217.55 245.991 214.75C250.336 210.73 255.744 205.731 255.642 197.595L255.619 195.795L255.21 194.044C253.825 188.109 250.972 185.68 240.358 176.638C234.938 172.022 227.398 165.734 218.556 158.452C205.905 148.035 192.741 137.357 183.653 130.123C185.311 119.114 187.594 102.853 188.696 94.7609C190.377 82.4 191.668 72.264 192.533 64.632C194.223 49.6809 194.382 45.691 192.044 40.8269L192.026 40.7807L192.008 40.7333C186.979 30.4281 175.596 30.4828 170.124 30.5054C165.04 30.5275 158.87 30.9547 154.588 31.3104C146.443 31.9846 132.058 33.398 127.182 35.2952C126.676 35.4924 126.175 35.7137 125.697 35.9513L125.318 36.1388L124.955 36.345C117.541 40.5228 116.321 47.6247 114.909 55.849C114.136 60.3514 113.18 66.6758 112.071 74.6494C111.48 78.8842 110.875 83.3731 110.284 87.9022C106.535 84.6052 103.12 81.6662 100.479 79.4082C95.2447 74.9444 90.1509 70.7113 86.1232 67.483C79.7926 62.4029 76.9031 60.0835 72.1102 59.2627L70.3152 58.955L68.4975 59.0448C66.5213 59.1491 64.5753 59.5754 62.7365 60.307L62.7178 60.3084Z" fill="black"/>
<path d="M71.1295 62.9301C71.3169 62.8487 71.5154 62.7959 71.7185 62.7734C73.233 63.032 107.367 91.255 123.774 108.024L125.24 107.453C128.15 83.7324 133.85 38.8806 135.471 37.9662C135.509 37.9492 135.548 37.9342 135.587 37.9213C139.051 36.5733 178.201 32.3974 179.576 35.2087C181.064 38.3026 168.993 121.21 168.23 124.33C183.56 136.152 241.12 183.214 241.543 185.026C241.569 187.161 214.649 209.715 204.602 213.624C204.132 213.812 203.648 213.965 203.155 214.081C201.494 214.163 167.072 185.204 148.948 169.103L147.477 169.676C145.247 193.697 139.697 238.209 138.47 238.687C137.809 239.072 137.116 239.4 136.399 239.668C125.63 243.858 93.5462 246.69 92.3813 245.044C91.2218 243.518 100.814 169.48 104.475 149.138C102.143 147.505 37.9465 94.2722 36.9522 90.9878C35.8573 88.174 65.6394 65.0708 71.1271 62.9355L71.1295 62.9301ZM65.1359 47.5384C59.126 49.877 47.5918 58.7336 41.252 63.8051C37.9958 66.4017 33.3457 70.2456 29.6621 73.7561C25.9985 77.2499 17.5019 85.3397 21.3084 96.3068C22.8905 101.087 25.8501 104.057 36.6497 113.606C42.3414 118.639 50.0493 125.262 59.5436 133.298C67.6155 140.123 78.9123 149.572 86.6185 155.92C84.6473 168.669 82.1625 186.916 80.2309 202.056C78.7863 213.375 77.6139 223.221 76.8337 230.533C75.3595 244.422 74.8504 249.181 79.0985 254.878C84.6592 262.422 93.4465 262.16 98.7221 262.004C102.531 261.89 107.444 261.523 112.555 260.972C120.127 260.156 134.07 258.303 142.387 255.067C143.724 254.554 145.025 253.95 146.279 253.257C153.279 249.558 154.767 242.419 155.284 239.951C155.609 238.391 155.971 236.333 156.392 233.657C157.115 229.083 158.007 222.671 158.977 215.115C159.556 210.605 160.137 205.872 160.697 201.142C164.397 204.282 168.102 207.407 171.632 210.352C177.54 215.283 182.609 219.422 186.289 222.325C193.078 227.685 197.169 230.923 203.952 230.588L205.376 230.518L206.763 230.207C208.066 229.91 209.344 229.515 210.588 229.025C218.268 226.036 229.284 217.878 237.172 211.558C241.387 208.182 245.378 204.78 248.406 201.979C252.752 197.96 258.159 192.96 258.057 184.824L258.035 183.025L257.625 181.274C256.24 175.339 253.387 172.91 242.773 163.868C237.355 159.251 229.813 152.964 220.971 145.681C208.322 135.264 195.156 124.587 186.071 117.352C187.728 106.343 190.012 90.0815 191.111 81.9907C192.793 69.631 194.085 59.4928 194.949 51.8631C196.641 36.9096 196.8 32.921 194.459 28.0567L194.441 28.0105L194.423 27.9631C189.395 17.6574 178.012 17.712 172.542 17.7354C167.455 17.7573 161.285 18.1858 157.006 18.5392C148.859 19.2139 134.468 20.6298 129.6 22.524C129.087 22.7237 128.591 22.943 128.115 23.1801L127.736 23.3676L127.373 23.5738C119.959 27.7515 118.741 34.8542 117.327 43.0778C116.555 47.5797 115.599 53.9041 114.488 61.8799C113.899 66.1125 113.301 70.5988 112.701 75.1327C108.953 71.8339 105.537 68.895 102.895 66.6388C97.6616 62.175 92.5672 57.9406 88.5396 54.7123C82.212 49.6399 79.3182 47.3133 74.5266 46.4919L72.7315 46.1843L70.9144 46.2753C68.938 46.3786 66.9917 46.8045 65.1529 47.5363L65.1359 47.5384Z" fill="black"/>
<path d="M143.61 171.174C141.38 195.195 135.831 239.707 134.606 240.184C126.838 244.9 89.7679 248.313 88.5144 246.542C87.3562 245.016 96.9454 170.979 100.607 150.637C98.2766 149.004 34.0822 95.7697 33.0853 92.4864C31.941 89.5455 64.5267 64.4443 67.8506 64.2767C69.3625 64.5364 103.498 92.759 119.906 109.527L121.376 108.955C124.288 85.2334 129.986 40.3825 131.607 39.4681C134.207 38.1759 174.319 33.8592 175.71 36.7068C177.197 39.8012 165.127 122.708 164.364 125.828C179.693 137.65 237.253 184.712 237.676 186.525C237.706 188.772 207.858 213.657 199.288 215.58C197.627 215.662 163.205 186.703 145.082 170.602L143.61 171.174Z" fill="#FCD015"/>
<path d="M199.926 215.331C198.265 215.413 163.843 186.454 145.726 170.351L144.248 170.926C142.018 194.947 136.469 239.459 135.243 239.936C128.333 244.132 98.206 247.298 90.7797 246.695L89.187 242.602C90.2814 227.255 97.9618 168.784 101.197 150.657L165.223 125.743C180.869 137.835 237.898 184.47 238.32 186.273C238.347 188.407 211.434 210.955 201.38 214.869C200.908 215.059 200.422 215.214 199.926 215.331Z" fill="#FBB500"/>
<path d="M205.983 217.5C205.351 217.75 204.702 217.953 204.04 218.108L203.338 218.202C201.368 218.298 200.552 218.338 179.561 200.828C170.128 192.959 159.445 183.827 150.955 176.39C149.84 187.417 148.246 201.274 146.676 213.529C143.253 240.231 142.731 241.409 140.257 242.408C134.705 245.52 121.143 247.491 113.449 248.394C91.5038 250.972 90.1698 249.089 88.9894 247.423C87.7877 245.853 87.2118 245.083 92.5024 203.616C95.2158 182.345 98.1841 161.38 99.9634 150.838C94.6513 146.538 80.6256 134.905 67.526 123.827C34.5771 95.9642 33.497 93.8568 33.006 92.2646C32.7693 91.4642 32.7235 90.6195 32.8725 89.7982C33.0214 88.9769 33.3608 88.202 33.8636 87.5357C37.2919 82.2453 65.7997 58.9275 71.4927 58.6446L71.9455 58.6161L72.3953 58.6938C73.4197 58.8699 74.9681 59.136 94.8116 76.057C100.128 80.5878 112.234 91.0435 121.924 100.398C129.849 36.3703 130.997 35.7243 133.42 34.3588L133.609 34.2588C137.481 32.3427 173.721 28.6374 180.197 30.8364C180.853 31.0321 181.462 31.359 181.988 31.7973C182.514 32.2356 182.946 32.7761 183.257 33.3862C184.01 34.9414 184.774 36.5262 178.81 80.3048C176.457 97.5937 173.807 115.724 172.696 122.58C181.086 129.145 197.739 142.608 213.072 155.232C244.924 181.46 245.115 182.28 245.535 184.078L245.637 184.514L245.64 184.956C245.663 186.661 245.693 188.995 228.099 202.902C222.306 207.511 212.238 215.066 205.983 217.5ZM143.586 166.752L149.79 164.338L151.677 166.014C169.669 181.996 197.132 204.997 203.616 209.586C210.929 206.519 229.758 191.416 235.992 185.317C225.302 175.723 181.079 139.465 165.694 127.597L163.566 125.957L164.204 123.344C165.109 119.257 174.698 52.8935 175.518 38.4051C167.946 37.9965 145.561 40.1254 138.627 41.4198C137.352 47.072 134.38 66.8004 129.328 107.956L129.026 110.408L122.712 112.865L120.804 110.915C105.93 95.7113 78.2145 72.6464 71.2827 67.4487C65.315 70.8832 47.1689 84.9734 41.9929 90.545C52.0462 100.492 103.695 143.459 106.851 145.771L108.935 147.294L108.523 149.867C105.21 168.308 97.5958 226.953 96.5199 241.421C104.965 241.385 127.803 238.721 135.066 235.764C136.707 228.066 141.263 191.759 143.349 169.29L143.586 166.752Z" fill="#FCD015"/>
<path d="M18.1881 100.677L20.67 87.589L30.0381 95.2248C30.0381 95.2248 29.5718 103.932 29.3454 104.254C29.1189 104.575 18.1881 100.677 18.1881 100.677Z" fill="black"/>
<path d="M257.938 187.122L255.102 202.07L242.709 198.798L247.544 182.484L257.938 187.122Z" fill="black"/>
</g>
<defs>
<filter id="filter0_f_37_68" x="6.93103" y="6.73297" width="262.127" height="279.091" filterUnits="userSpaceOnUse" color-interpolation-filters="sRGB">
<feFlood flood-opacity="0" result="BackgroundImageFix"/>
<feBlend mode="normal" in="SourceGraphic" in2="BackgroundImageFix" result="shape"/>
<feGaussianBlur stdDeviation="5.5" result="effect1_foregroundBlur_37_68"/>
</filter>
</defs>
</svg>
