<svg width="706" height="617" viewBox="0 0 706 617" fill="none" xmlns="http://www.w3.org/2000/svg">
<g filter="url(#filter0_f_37_84)">
<path d="M407.005 141.973C407.504 142.202 407.966 142.505 408.376 142.87C410.567 146.354 415.335 265.014 411.234 327.784L415.015 329.698C467.579 293.044 567.313 224.126 572.039 225.728C572.139 225.772 572.237 225.822 572.332 225.877C581.224 230.379 659.645 301.052 656.491 308.827C652.98 317.332 465.879 441.659 458.286 445.722C462.131 497.487 471.228 696.632 468.371 700.722C464.158 704.597 370.947 691.236 345.155 678.179C343.938 677.575 342.767 676.883 341.652 676.107C338.517 672.935 334.702 552.383 334.395 487.386L330.618 485.473C278.679 524.02 179.889 592.626 176.744 591.034C174.79 590.406 172.894 589.613 171.077 588.661C143.431 574.664 80.3445 515.685 81.5431 510.417C82.516 505.373 247.474 391.976 294.633 362.869C293.72 355.289 285.062 131.855 289.835 123.989C293.491 116.766 392.923 134.857 407.006 141.986L407.005 141.973ZM427.015 102.464C411.589 94.6537 373.265 87.4865 351.789 83.9086C340.78 82.0589 324.779 79.6559 311.178 78.5873C297.645 77.529 266.286 75.0508 251.212 102.284C244.505 113.995 243.874 125.22 244.145 163.875C244.287 184.247 244.866 211.488 245.823 244.822C246.647 273.157 248.006 312.62 249.132 339.369C220.156 358.256 179.285 385.959 145.605 409.209C120.425 426.588 98.6697 441.869 82.6787 453.407C52.312 475.326 41.9048 482.831 38.138 501.509C33.0371 526.115 49.2845 543.183 59.0431 553.437C66.0853 560.833 75.6117 569.985 85.8658 579.202C101.049 592.855 129.709 617.37 151.058 628.178C154.473 629.933 158.007 631.446 161.634 632.705C181.552 640.063 198.462 630.248 204.314 626.863C208.009 624.721 212.769 621.76 218.864 617.811C229.289 611.065 243.686 601.369 260.5 589.776C270.542 582.861 281.028 575.545 291.472 568.196C291.83 581.204 292.225 594.194 292.664 606.511C293.396 627.131 294.21 644.657 295 657.201C296.459 680.35 297.335 694.32 310.128 707.251L312.815 709.969L315.923 712.184C318.849 714.252 321.926 716.096 325.129 717.701C344.848 727.684 380.854 735.064 407.586 739.498C421.878 741.868 435.807 743.744 446.82 744.777C462.622 746.256 482.283 748.099 498.341 733.331L501.89 730.063L504.656 726.113C514.021 712.723 513.764 702.679 512.812 665.305C512.323 646.223 511.378 619.917 510.086 589.231C508.23 545.329 505.98 499.937 504.151 468.847C529.095 452.449 565.641 427.894 583.765 415.608C611.45 396.837 633.992 381.267 650.776 369.332C683.646 345.941 691.894 339.115 697.419 325.741L697.479 325.623L697.541 325.501C709.108 297.014 688.622 274.391 678.781 263.508C669.636 253.4 657.738 241.848 649.362 233.938C633.435 218.885 604.863 192.702 592.347 186.366C591.046 185.707 589.709 185.104 588.379 184.576L587.326 184.155L586.265 183.799C564.653 176.478 548.293 186.758 529.348 198.662C518.977 205.179 504.641 214.592 486.739 226.652C477.229 233.054 467.185 239.882 457.086 246.81C456.957 233.425 456.709 221.345 456.488 212.031C456.029 193.593 455.36 175.847 454.594 162.028C453.401 140.297 452.858 130.377 445.917 119.34L443.318 115.207L439.884 111.739C436.138 107.981 431.804 104.86 427.052 102.499L427.015 102.464Z" fill="black"/>
<path d="M436.841 123.947C437.339 124.175 437.8 124.477 438.208 124.842C440.403 128.328 445.171 246.988 441.07 309.757L444.834 311.663C497.393 275.006 597.128 206.093 601.855 207.692C601.956 207.737 602.055 207.787 602.151 207.842C611.044 212.344 689.465 283.018 686.314 290.794C682.801 299.302 495.699 423.625 488.106 427.687C491.951 479.452 501.051 678.599 498.191 682.687C493.975 686.561 400.763 673.2 374.975 660.144C373.758 659.541 372.587 658.848 371.472 658.073C368.335 654.904 364.52 534.352 364.215 469.351L360.437 467.439C308.497 505.989 209.707 574.595 206.559 573.001C204.606 572.371 202.711 571.576 200.893 570.625C173.25 556.63 110.162 497.654 111.363 492.382C112.332 487.337 277.293 373.942 324.453 344.834C323.538 337.258 314.875 113.817 319.651 105.953C323.308 98.7299 422.739 116.82 436.826 123.952L436.841 123.947ZM456.835 84.4293C441.408 76.619 403.081 69.4501 381.609 65.874C370.596 64.0226 354.599 61.6214 340.997 60.5528C327.465 59.4945 296.106 57.0162 281.028 84.2474C274.32 95.9619 273.689 107.187 273.961 145.839C274.103 166.21 274.682 193.452 275.638 226.79C276.463 255.121 277.826 294.585 278.948 321.333C249.972 340.22 209.099 367.926 175.421 391.173C150.241 408.552 128.488 423.838 112.495 435.371C82.1316 457.292 71.7212 464.794 67.9543 483.472C62.8502 508.077 79.1042 525.149 88.8595 535.4C95.905 542.799 105.431 551.95 115.682 561.166C130.865 574.819 159.525 599.334 180.874 610.142C184.291 611.896 187.826 613.409 191.454 614.671C211.37 622.023 228.282 612.214 234.135 608.826C237.831 606.683 242.587 603.72 248.682 599.772C259.107 593.026 273.504 583.329 290.321 571.738C300.36 564.821 310.849 557.507 321.293 550.158C321.648 563.164 322.043 576.154 322.485 588.473C323.217 609.093 324.029 626.622 324.822 639.163C326.278 662.31 327.137 676.272 339.95 689.213L342.637 691.931L345.741 694.144C348.667 696.212 351.744 698.056 354.947 699.661C374.663 709.643 410.667 717.026 437.404 721.459C451.687 723.829 465.625 725.705 476.635 726.735C492.437 728.215 512.097 730.058 528.156 715.29L531.708 712.024L534.471 708.072C543.836 694.682 543.579 684.638 542.627 647.264C542.145 628.185 541.193 601.876 539.901 571.19C538.052 527.292 535.794 481.896 533.972 450.809C558.913 434.41 595.462 409.857 613.58 397.567C641.263 378.799 663.814 363.229 680.589 351.294C713.468 327.903 721.714 321.08 727.234 307.7L727.294 307.582L727.356 307.46C738.926 278.975 718.441 256.351 708.601 245.473C699.451 235.358 687.551 223.81 679.184 215.9C663.253 200.846 634.664 174.654 622.169 168.328C620.851 167.661 619.527 167.065 618.201 166.538L617.148 166.117L616.086 165.762C594.474 158.44 578.116 168.725 559.17 180.624C548.802 187.143 534.466 196.556 516.556 208.615C507.054 215.018 497.026 221.854 486.903 228.774C486.778 215.387 486.53 203.308 486.304 193.995C485.845 175.557 485.178 157.807 484.412 143.988C483.21 122.277 482.673 112.336 475.735 101.301L473.136 97.167L469.701 93.7027C465.957 89.9424 461.622 86.82 456.87 84.4592L456.835 84.4293Z" fill="black"/>
<path d="M350.523 462.403C298.583 500.954 199.796 569.561 196.651 567.969C173.332 560.905 100.157 493.019 101.448 487.347C102.421 482.303 267.376 368.905 314.535 339.797C313.624 332.223 304.967 108.785 309.737 100.917C313.559 93.3683 421.998 113.478 428.283 119.813C430.471 123.296 435.242 241.957 431.144 304.729L434.918 306.64C487.483 269.986 587.212 201.069 591.939 202.668C599.172 205.544 679.596 277.885 676.403 285.761C672.887 294.267 485.788 418.591 478.195 422.654C482.037 474.417 491.137 673.563 488.277 677.652C483.843 681.734 380.736 666.702 361.558 653.037C358.42 649.868 354.606 529.317 354.3 464.316L350.523 462.403Z" fill="#FCD015"/>
<path d="M363.194 653.866C360.057 650.697 356.242 530.145 355.954 465.153L352.16 463.232C300.219 501.782 201.433 570.39 198.288 568.797C177.54 562.514 117.289 508.045 105.198 492.142L110.517 481.635C143.111 456.346 273.576 367.004 315.551 341.011L479.899 424.216C483.771 477.095 492.773 674.417 489.931 678.485C485.719 682.361 392.53 669.003 366.72 655.941C365.495 655.338 364.316 654.644 363.194 653.866Z" fill="#FBB500"/>
<path d="M369.71 669.839C368.08 669.025 366.512 668.093 365.019 667.05L363.574 665.818C359.855 662.056 358.314 660.498 355.691 587.253C354.51 554.335 353.614 516.663 353.261 486.402C329.254 503.916 298.742 525.542 271.466 544.347C212.039 585.313 208.754 586.382 202.33 583.232C186.178 577.72 157.966 554.176 142.389 540.435C97.9582 501.245 99.3289 495.211 100.543 489.872C101.525 484.663 102.031 482.135 194.276 418.462C241.592 385.801 288.755 354.195 312.983 338.875C312.058 320.573 310.169 271.752 308.833 225.771C305.466 110.122 307.739 104.193 310.038 100.363C311.212 98.4575 312.817 96.8539 314.723 95.681C316.629 94.5081 318.783 93.7984 321.013 93.6091C337.711 90.9819 435.29 106.144 446.046 117.002L446.913 117.855L447.564 118.892C449.046 121.252 451.286 124.819 453.033 194.72C453.506 213.443 454.308 256.327 452.982 292.415C594.976 193.613 598.32 194.748 605.384 197.141L605.921 197.338C616.678 201.638 688.95 267.345 696.153 284.207C696.937 285.868 697.375 287.669 697.442 289.504C697.509 291.339 697.203 293.168 696.542 294.881C694.785 299.168 692.99 303.531 594.925 369.996C556.202 396.25 515.268 423.416 499.593 433.471C501.508 461.973 504.445 519.315 506.696 572.519C511.361 683.054 510.066 684.901 507.229 688.96L506.541 689.944L505.665 690.742C502.301 693.839 497.697 698.079 438.441 687.853C418.871 684.541 385.766 677.968 369.71 669.839ZM359.309 454.439L375.234 462.501L375.266 469.27C375.572 533.795 378.822 629.79 381.269 650.947C400.483 660.054 464.339 670.601 487.672 672.128C487.687 633.613 480.896 480.431 477.043 428.476L476.509 421.292L482.866 417.89C492.644 412.38 642.282 312.718 672.67 288.418C659.93 272.572 615.607 231.698 600.611 220.176C587.045 227.748 542.344 257.133 451.149 320.724L445.715 324.511L429.508 316.306L429.983 309.007C433.704 252.098 430.13 155.485 428.096 132.343C410.557 126.58 349.947 115.581 329.559 115.223C327.7 153.098 334.392 333.113 335.429 343.552L336.118 350.438L330.246 354.223C287.503 380.622 156.81 470.407 126.004 494.16C141.194 510.953 187.395 551.771 206.3 560.974C224.602 550.47 305.233 494.568 353.818 458.511L359.309 454.439Z" fill="#FCD015"/>
<path d="M266.72 85.842L297.287 67.3673L298.816 99.7368C298.816 99.7368 280.6 114.394 279.553 114.517C278.505 114.641 266.72 85.842 266.72 85.842Z" fill="black"/>
</g>
<defs>
<filter id="filter0_f_37_84" x="0.169815" y="22.9753" width="767.63" height="759.777" filterUnits="userSpaceOnUse" color-interpolation-filters="sRGB">
<feFlood flood-opacity="0" result="BackgroundImageFix"/>
<feBlend mode="normal" in="SourceGraphic" in2="BackgroundImageFix" result="shape"/>
<feGaussianBlur stdDeviation="18.5" result="effect1_foregroundBlur_37_84"/>
</filter>
</defs>
</svg>
